<?xml version="1.0" encoding="utf-8"?>
<svg id="master-artboard" viewBox="0 0 1384.4373779296875 427.5256652832031" version="1.1" xmlns="http://www.w3.org/2000/svg" x="0px" y="0px" style="enable-background:new 0 0 336 235.2;" width="1384.4373779296875px" height="427.5256652832031px"><rect id="ee-background" x="0" y="0" width="1384.4373779296875" height="427.5256652832031" style="fill: white; fill-opacity: 0; pointer-events: none;"/><defs><linearGradient data-v-fde0c5aa="" gradientTransform="rotate(25)" id="bfce96ca-4299-4ea0-ac22-f8dc31bc5b04" x1="0%" y1="0%" x2="100%" y2="0%"><stop data-v-fde0c5aa="" offset="0%" stop-color="#4d79f6" stop-opacity="1"/><stop data-v-fde0c5aa="" offset="100%" stop-color="#4d79f6" stop-opacity="1"/></linearGradient></defs><g transform="matrix(6.306527137756348, 0, 0, 6.306527137756348, -256.38807010650635, -730.9544677734375)"><path d="M 0 0 H 300 V 300 H 0 V 0 Z" data-v-fde0c5aa="" fill="transparent" class="logo-background-square"/><g data-v-fde0c5aa="" id="b58e7749-9e0f-47f2-ba33-810583a2746f" fill="#000000" transform="matrix(3.355289771164368,0,0,3.355289771164368,88.17561549045908,116.69874998114976)"><path d="M4.82 14.71L3.60 14.71L1.58 9.04L1.58 14.71L0.52 14.71L0.52 3.19L1.58 3.19L1.58 8.16L3.53 3.19L4.68 3.19L2.49 8.44L4.82 14.71ZM8.64 14.71L7.67 14.71L7.67 7.56L7.67 7.56Q7.67 7.18 7.55 7.02L7.55 7.02L7.55 7.02Q7.42 6.86 7.11 6.86L7.11 6.86L7.11 6.86Q6.90 6.86 6.69 6.99L6.69 6.99L6.69 6.99Q6.48 7.11 6.37 7.39L6.37 7.39L6.37 14.71L5.40 14.71L5.40 6.05L6.22 6.05L6.22 6.05Q6.26 6.37 6.26 6.71L6.26 6.71L6.26 6.71Q6.45 6.34 6.78 6.13L6.78 6.13L6.78 6.13Q7.10 5.91 7.50 5.91L7.50 5.91L7.50 5.91Q8.09 5.91 8.37 6.29L8.37 6.29L8.37 6.29Q8.64 6.66 8.64 7.50L8.64 7.50L8.64 14.71ZM10.63 4.94L9.66 4.94L9.66 3.19L10.63 3.19L10.63 4.94ZM10.63 14.71L9.66 14.71L9.66 6.05L10.63 6.05L10.63 14.71ZM13.83 13.09L13.83 11.17L14.73 11.17L14.73 13.10L14.73 13.10Q14.73 13.90 14.36 14.37L14.36 14.37L14.36 14.37Q13.99 14.84 13.19 14.84L13.19 14.84L13.19 14.84Q12.39 14.84 12.00 14.36L12.00 14.36L12.00 14.36Q11.61 13.87 11.61 13.08L11.61 13.08L11.61 7.70L11.61 7.70Q11.61 6.90 12.00 6.40L12.00 6.40L12.00 6.40Q12.39 5.91 13.19 5.91L13.19 5.91L13.19 5.91Q13.99 5.91 14.34 6.40L14.34 6.40L14.34 6.40Q14.70 6.89 14.70 7.69L14.70 7.69L14.70 9.56L13.83 9.56L13.83 7.67L13.83 7.67Q13.83 6.90 13.19 6.90L13.19 6.90L13.19 6.90Q12.87 6.90 12.71 7.11L12.71 7.11L12.71 7.11Q12.54 7.32 12.54 7.69L12.54 7.69L12.54 13.08L12.54 13.08Q12.54 13.86 13.19 13.86L13.19 13.86L13.19 13.86Q13.83 13.86 13.83 13.09L13.83 13.09ZM19.22 14.71L18.16 14.71L16.59 10.26L16.59 14.71L15.65 14.71L15.65 3.19L16.59 3.19L16.59 9.79L18.16 6.05L19.18 6.05L17.49 9.88L19.22 14.71ZM23.42 14.71L22.36 14.71L20.79 10.26L20.79 14.71L19.85 14.71L19.85 3.19L20.79 3.19L20.79 9.79L22.36 6.05L23.38 6.05L21.69 9.88L23.42 14.71ZM27.29 14.71L26.32 14.71L26.32 7.56L26.32 7.56Q26.32 7.18 26.19 7.02L26.19 7.02L26.19 7.02Q26.07 6.86 25.76 6.86L25.76 6.86L25.76 6.86Q25.55 6.86 25.34 6.99L25.34 6.99L25.34 6.99Q25.13 7.11 25.02 7.39L25.02 7.39L25.02 14.71L24.05 14.71L24.05 6.05L24.86 6.05L24.86 6.05Q24.91 6.37 24.91 6.71L24.91 6.71L24.91 6.71Q25.10 6.34 25.42 6.13L25.42 6.13L25.42 6.13Q25.75 5.91 26.15 5.91L26.15 5.91L26.15 5.91Q26.74 5.91 27.01 6.29L27.01 6.29L27.01 6.29Q27.29 6.66 27.29 7.50L27.29 7.50L27.29 14.71ZM31.30 14.71L30.42 14.71L30.42 14.71Q30.37 14.53 30.37 14.20L30.37 14.20L30.37 14.20Q30.02 14.84 29.33 14.84L29.33 14.84L29.33 14.84Q28.74 14.84 28.41 14.52L28.41 14.52L28.41 14.52Q28.08 14.20 28.08 13.47L28.08 13.47L28.08 12.19L28.08 12.19Q28.08 11.56 28.26 11.14L28.26 11.14L28.26 11.14Q28.43 10.71 28.73 10.42L28.73 10.42L28.73 10.42Q29.04 10.12 29.44 9.92L29.44 9.92L29.44 9.92Q29.85 9.72 30.31 9.52L30.31 9.52L30.31 7.63L30.31 7.63Q30.31 7.27 30.18 7.07L30.18 7.07L30.18 7.07Q30.04 6.87 29.68 6.87L29.68 6.87L29.68 6.87Q29.30 6.87 29.18 7.07L29.18 7.07L29.18 7.07Q29.05 7.27 29.05 7.63L29.05 7.63L29.05 9.45L28.20 9.45L28.20 7.62L28.20 7.62Q28.20 6.76 28.55 6.34L28.55 6.34L28.55 6.34Q28.91 5.91 29.71 5.91L29.71 5.91L29.71 5.91Q31.23 5.91 31.23 7.62L31.23 7.62L31.23 13.72L31.23 13.72Q31.23 14.03 31.25 14.29L31.25 14.29L31.25 14.29Q31.26 14.56 31.30 14.71L31.30 14.71ZM30.31 13.36L30.31 10.29L30.31 10.29Q29.89 10.44 29.63 10.63L29.63 10.63L29.63 10.63Q29.37 10.81 29.24 11.04L29.24 11.04L29.24 11.04Q29.11 11.27 29.06 11.57L29.06 11.57L29.06 11.57Q29.02 11.87 29.02 12.26L29.02 12.26L29.02 13.19L29.02 13.19Q29.02 13.90 29.68 13.90L29.68 13.90L29.68 13.90Q29.89 13.90 30.07 13.78L30.07 13.78L30.07 13.78Q30.24 13.65 30.31 13.36L30.31 13.36ZM34.33 13.09L34.33 11.17L35.22 11.17L35.22 13.10L35.22 13.10Q35.22 13.90 34.85 14.37L34.85 14.37L34.85 14.37Q34.48 14.84 33.68 14.84L33.68 14.84L33.68 14.84Q32.89 14.84 32.49 14.36L32.49 14.36L32.49 14.36Q32.10 13.87 32.10 13.08L32.10 13.08L32.10 7.70L32.10 7.70Q32.10 6.90 32.49 6.40L32.49 6.40L32.49 6.40Q32.89 5.91 33.68 5.91L33.68 5.91L33.68 5.91Q34.48 5.91 34.84 6.40L34.84 6.40L34.84 6.40Q35.20 6.89 35.20 7.69L35.20 7.69L35.20 9.56L34.33 9.56L34.33 7.67L34.33 7.67Q34.33 6.90 33.68 6.90L33.68 6.90L33.68 6.90Q33.36 6.90 33.20 7.11L33.20 7.11L33.20 7.11Q33.04 7.32 33.04 7.69L33.04 7.69L33.04 13.08L33.04 13.08Q33.04 13.86 33.68 13.86L33.68 13.86L33.68 13.86Q34.33 13.86 34.33 13.09L34.33 13.09ZM39.72 14.71L38.65 14.71L37.09 10.26L37.09 14.71L36.15 14.71L36.15 3.19L37.09 3.19L37.09 9.79L38.65 6.05L39.68 6.05L37.98 9.88L39.72 14.71ZM42.27 13.20L42.27 12.21L42.27 12.21Q42.27 11.93 42.19 11.73L42.19 11.73L42.19 11.73Q42.11 11.52 41.85 11.20L41.85 11.20L41.85 11.20Q41.55 10.85 41.19 10.54L41.19 10.54L41.19 10.54Q40.82 10.22 40.56 9.90L40.56 9.90L40.56 9.90Q40.28 9.59 40.19 9.28L40.19 9.28L40.19 9.28Q40.11 8.97 40.11 8.47L40.11 8.47L40.11 7.57L40.11 7.57Q40.11 6.68 40.50 6.29L40.50 6.29L40.50 6.29Q40.89 5.91 41.65 5.91L41.65 5.91L41.65 5.91Q42.53 5.91 42.86 6.30L42.86 6.30L42.86 6.30Q43.19 6.69 43.19 7.57L43.19 7.57L43.19 8.99L42.31 8.99L42.31 7.57L42.31 7.57Q42.31 7.25 42.13 7.06L42.13 7.06L42.13 7.06Q41.94 6.87 41.68 6.87L41.68 6.87L41.68 6.87Q41.05 6.87 41.05 7.57L41.05 7.57L41.05 8.60L41.05 8.60Q41.05 8.90 41.13 9.08L41.13 9.08L41.13 9.08Q41.20 9.25 41.44 9.51L41.44 9.51L41.44 9.51Q41.72 9.81 42.07 10.09L42.07 10.09L42.07 10.09Q42.42 10.37 42.69 10.68L42.69 10.68L42.69 10.68Q43.01 11.06 43.12 11.42L43.12 11.42L43.12 11.42Q43.23 11.77 43.23 12.33L43.23 12.33L43.23 13.27L43.23 13.27Q43.23 14.11 42.83 14.48L42.83 14.48L42.83 14.48Q42.43 14.84 41.62 14.84L41.62 14.84L41.62 14.84Q40.11 14.84 40.11 13.23L40.11 13.23L40.11 11.82L40.98 11.82L40.98 13.20L40.98 13.20Q40.98 13.52 41.17 13.71L41.17 13.71L41.17 13.71Q41.36 13.90 41.64 13.90L41.64 13.90L41.64 13.90Q42.27 13.90 42.27 13.20L42.27 13.20ZM45.05 14.71L44.06 14.71L44.06 12.96L45.05 12.96L45.05 14.71ZM48.33 13.17L48.33 7.71L48.33 7.71Q48.33 7.31 48.18 7.15L48.18 7.15L48.18 7.15Q48.03 6.99 47.71 6.99L47.71 6.99L47.71 6.99Q47.47 6.99 47.27 7.13L47.27 7.13L47.27 7.13Q47.07 7.27 46.97 7.55L46.97 7.55L46.97 13.31L46.97 13.31Q47.07 13.59 47.27 13.73L47.27 13.73L47.27 13.73Q47.47 13.87 47.71 13.87L47.71 13.87L47.71 13.87Q48.03 13.87 48.18 13.71L48.18 13.71L48.18 13.71Q48.33 13.55 48.33 13.17L48.33 13.17ZM46.97 16.66L46.00 16.66L46.00 6.05L46.82 6.05L46.82 6.05Q46.86 6.37 46.86 6.71L46.86 6.71L46.86 6.71Q47.01 6.34 47.29 6.15L47.29 6.15L47.29 6.15Q47.57 5.96 48.05 5.96L48.05 5.96L48.05 5.96Q48.65 5.96 48.97 6.36L48.97 6.36L48.97 6.36Q49.28 6.75 49.28 7.59L49.28 7.59L49.28 13.26L49.28 13.26Q49.28 14.14 48.99 14.49L48.99 14.49L48.99 14.49Q48.69 14.84 48.02 14.84L48.02 14.84L48.02 14.84Q47.67 14.84 47.40 14.69L47.40 14.69L47.40 14.69Q47.12 14.55 46.97 14.31L46.97 14.31L46.97 16.66ZM51.21 14.71L50.25 14.71L50.25 3.19L51.21 3.19L51.21 14.71Z"/></g><g data-v-fde0c5aa="" id="90feca1b-7a0e-4115-a1f2-3654b5c6ff46" stroke="none" fill="url(#bfce96ca-4299-4ea0-ac22-f8dc31bc5b04)" transform="matrix(0.29582631304540863,0,0,0.29582631304540863,-1189.4589237493014,273.7247692567113)"><path d="M4255.872-373.505h22.463v-18.129h-5.686v-100.367h-33.198v-11.964h-11.783v-28.853h-18.167v28.853h-12.772v11.964h-30.448v-.004h-1.112v100.372h-7.323v18.129h23.119l-24.948 69.853h19.84l13.84-38.75h19.113v27.417h18.562v-27.417h19.77l13.84 38.75h19.84l-24.95-69.854zm6.129-112.997h5.148v94.786h-5.148v-94.786zm0 100.367h10.834v7.129h-10.834v-7.129zm-47-141.184h7.167v23.167h-7.167v-23.167zm-12.772 28.853h31.723v9.788h-31.723v-9.788zm-31.561 11.964h26.061v3.324h42.723v-3.324h17.05v22.691c-3.093.481-11.141 1.612-16.343 1.241-6.412-.466-11.688 5.521-13.965 8.613h-31.115c-10.263-11.658-19.885-15.215-24.41-16.283v-16.262zm45.605 68.61c3.994 3.063 7.682 6.073 8.288 6.916 1.368 2.192 4.504 5.113 4.857 5.438l1.944 1.794 7.266 11.591h-29.637c4.877-5.951 9.426-12.187 9.426-14.75.001-2.139-1.21-7.316-2.144-10.989zm18.792 10.641a41.844 41.844 0 0 1 3.058-7.062c1.306-2.056 2.598-3.948 3.662-5.265a16.3 16.3 0 0 1 2.195-2.044c.866-.542 2.07-1.15 3.466-1.781.026-.007.051-.02.077-.027 3.772-1.012 6.46-1.911 8.374-2.681l-.41 32.73-11.449.444-8.973-14.314zm10.627-20.841c-1.716.537-3.274 1.387-4.687 2.45-.446.29-.851.577-1.175.854-.474.405-.994.958-1.542 1.605-1.819 1.952-3.314 4.2-4.512 6.376a154.927 154.927 0 0 0-3.222 5.338c-.7-.755-1.372-1.545-1.755-2.158-1.161-1.856-7.579-6.827-11.561-9.812l12.137-26.335c1.517-2.391 6.126-8.113 10.426-7.81 4.989.358 12-.487 15.912-1.052l.221 26.566c-2.37.816-6.584 2.332-10.242 3.978zm-33.055 2.702c-.607-1.737-2.829-7.648-6.747-13.128a104.873 104.873 0 0 0-3.069-5.099c1.209-1.308 3.83-3.369 8.346-3.369 4.365 0 7.697 2.461 9.504 4.19l-8.034 17.406zm-41.969-39.668c1.935.568 4.683 1.616 7.915 3.546 3.818 2.279 8.827 6.131 14.113 12.491v.064h.053c2.917 3.519 5.917 7.79 8.85 13.008l.15.236c4.135 5.742 6.278 12.293 6.299 12.358l.134.414 2.426 3.153c.886 3.276 2.092 8.133 2.585 10.997-3.53-3.319-9.022-9.002-12.062-14.777-4.925-9.359-23.661-7.282-30.462-6.186v-35.304zm0 40.384c2.109-.351 6.607-.997 11.397-1.041 7.855-.068 13.084 1.519 14.641 4.477 3.944 7.494 11.257 14.529 14.724 17.625-2.12 3.076-5.596 7.493-8.953 11.46h-31.809v-32.521zm-7.323 45.669v-7.129h93.156v7.129h-2.593l-.053-.147h-19.84l.053.147h-31.301l.053-.147h-19.84l-.053.147h-19.582zm78.082 20.603h-14.056v-15.103h8.661l5.395 15.103zm-19.556-14.584v14.583h-7.562v-14.583h7.562zm-13.062-.519v15.103h-13.399l5.395-15.103h8.004zm13.062 53.019h-7.562v-21.917h7.562v21.917zm29.194-26.905h-6.021l.1-.011h-53.595l.082.011h-5.861l-13.79 38.239h-8.16l22.982-64.353h8.16l-5.394 15.103-1.762 4.932h5.67l.146.068h49.59l.021-.193h5.84l-1.55-4.089-.196-.718h-.061l-5.394-15.103h8.16l7.632 21.369c.209.341.345.725.401 1.126l14.949 41.858h-8.16l-13.789-38.239z"/><path d="M4187.791-353.423l.017-.047h-.17zM4221.918-462.402c4.963 0 9-4.038 9-9s-4.037-9-9-9-9 4.038-9 9 4.037 9 9 9zm0-13c2.206 0 4 1.794 4 4s-1.794 4-4 4-4-1.794-4-4 1.794-4 4-4z"/></g></g></svg>