<svg id="filled_outline" height="512" viewBox="0 0 512 512" width="512" xmlns="http://www.w3.org/2000/svg" data-name="filled outline"><path d="m378.54 384 21.423 53.916a18.91 18.91 0 0 0 25.737 9.234 18.911 18.911 0 0 0 9.628-22.44l-14.993-48.71z" fill="#516b5b"/><path d="m435.328 424.71-14.993-48.71-12.335 2.361.179 4.488 14.993 48.71a18.9 18.9 0 0 1 -3.385 17.407 18.885 18.885 0 0 0 15.541-24.256z" fill="#6f8b7b"/><path d="m488 303.4c-.182-30.994-26.565-55.9-58.666-55.8l-128.447.369a28.745 28.745 0 0 1 -20.045-7.983 26.784 26.784 0 0 1 -8.269-19.273 49.137 49.137 0 0 0 -15.173-35.357l-3.192-3.082a63.537 63.537 0 0 0 -35.482-17.121 170.986 170.986 0 0 0 -92.284 12.736c-61.798 27.311-102.442 73.599-102.442 126.111 0 83.947 103.87 152 232 152s232-68.053 232-152c0-.2 0-.4 0-.6zm-120 40.6c-35.346 0-64-17.909-64-40s28.654-40 64-40 64 17.909 64 40-28.654 40-64 40z" fill="#dceaef"/><path d="m272 440c-128.13 0-232-68.053-232-152 0-27.284 10.976-52.887 30.187-75.022-29.003 25.374-46.187 56.882-46.187 91.022 0 83.947 103.87 152 232 152 86.46 0 161.866-30.991 201.773-76.939-42.316 36.998-109.773 60.939-185.773 60.939z" fill="#d1d8db"/><ellipse cx="97.333" cy="268" fill="#f9d59b" rx="33.333" ry="20"/><path d="m94.667 256c18.329 0 33.2 8.877 33.327 19.856a13.449 13.449 0 0 0 2.673-7.856c0-11.046-14.924-20-33.334-20s-33.333 8.954-33.333 20c0 .048.006.1.006.144 5.088-7.144 16.9-12.144 30.661-12.144z" fill="#ffc866"/><ellipse cx="105.333" cy="340" fill="#a7d5c3" rx="33.333" ry="20"/><path d="m102.667 328c18.329 0 33.2 8.877 33.327 19.856a13.449 13.449 0 0 0 2.673-7.856c0-11.046-14.924-20-33.334-20s-33.333 8.954-33.333 20c0 .048.006.1.006.144 5.088-7.144 16.9-12.144 30.661-12.144z" fill="#6f8b7b"/><ellipse cx="177.333" cy="388" fill="#74a2b7" rx="33.333" ry="20"/><path d="m174.667 376c18.329 0 33.2 8.877 33.327 19.856a13.449 13.449 0 0 0 2.673-7.856c0-11.046-14.924-20-33.334-20s-33.333 8.954-33.333 20c0 .048.006.1.006.144 5.088-7.144 16.9-12.144 30.661-12.144z" fill="#48687a"/><ellipse cx="166.667" cy="220" fill="#e54a85" rx="33.333" ry="20"/><path d="m166.667 200c-16.561 0-30.295 7.248-32.887 16.744 6-5.278 16.1-8.744 27.553-8.744 18.41 0 33.334 8.954 33.334 20a12.3 12.3 0 0 1 -.447 3.256c3.646-3.207 5.78-7.082 5.78-11.256 0-11.046-14.924-20-33.333-20z" fill="#d32668"/><path d="m344 128-64 8 82.585 207.847c1.787.094 3.59.153 5.415.153 15.053 0 28.881-3.256 39.81-8.692z" fill="#516b5b"/><path d="m328.19 144 60.875 197.773a81 81 0 0 0 18.745-6.465l-63.81-207.308-64 8 5.309 13.36z" fill="#6f8b7b"/><ellipse cx="368" cy="304" fill="none" rx="64" ry="40"/><path d="m341.735 421.735-7.953-7.953a19.741 19.741 0 0 1 -5.782-13.959v-4.082a19.741 19.741 0 0 0 -19.741-19.741h-.059a19.741 19.741 0 0 0 -17.657 10.913l-2.887 5.773a19.743 19.743 0 0 1 -23.9 9.9 19.737 19.737 0 0 0 -15.071 1.071l-4 2a19.741 19.741 0 0 0 -7.6 6.706l-4.916 7.373a19.741 19.741 0 0 0 1.261 23.589l10.39 12.468q6.055.207 12.18.207a336.687 336.687 0 0 0 97.046-13.907l-7.613-15.228a19.757 19.757 0 0 0 -3.698-5.13z" fill="#e54a85"/><path d="m165.525 295.425-1.232 3.7a15.653 15.653 0 0 0 7.849 18.95 73.324 73.324 0 0 0 41.888 7.175l31.328-3.916a15.651 15.651 0 0 0 13.242-11.734l1.884-7.533a15.654 15.654 0 0 0 -10.236-18.646l-2.1-.7a15.651 15.651 0 0 1 -10.235-11.053 15.652 15.652 0 0 0 -24.963-8.426l-18.77 15.014a15.653 15.653 0 0 1 -4.828 2.627l-13.927 4.642a15.654 15.654 0 0 0 -9.9 9.9z" fill="#a7d5c3"/><path d="m344 128-64 8 25.871 65.111a113.142 113.142 0 0 0 55.777-15.775z" fill="#ba763e"/><path d="m344 128-23.111 2.889 7.964 25.872a32.675 32.675 0 0 1 -23.727 41.527l-.346.078 1.091 2.745a113.142 113.142 0 0 0 55.777-15.775z" fill="#e2a23b"/><path d="m304 160.372a56 56 0 0 1 -56-56 96.569 96.569 0 0 1 28.284-68.284l8.825-8.825a11.066 11.066 0 0 1 18.891 7.825v13.284a56 56 0 0 1 56 56 56 56 0 0 1 -56 56z" fill="#b9bec1"/><path d="m304 48.372v-13.284a11.066 11.066 0 0 0 -18.891-7.825l-8.825 8.825q-2.327 2.328-4.473 4.8a11.085 11.085 0 0 1 16.189 9.828v13.284a56 56 0 0 1 56 56 55.731 55.731 0 0 1 -9.641 31.418 55.94 55.94 0 0 0 25.641-47.046 56 56 0 0 0 -56-56z" fill="#d1d8db"/><path d="m124.813 438.13 6.374-14.676c-62.108-26.968-99.187-71.623-99.187-119.454 0-47.36 36.516-91.77 97.68-118.794a162.638 162.638 0 0 1 87.961-12.128 55.885 55.885 0 0 1 31.014 14.95l3.193 3.083a40.887 40.887 0 0 1 12.723 29.6 35.017 35.017 0 0 0 10.712 25.028 36.5 36.5 0 0 0 25.517 10.227h.109l18.13-.052 4.115 10.356c-17.144 8.979-27.154 22.695-27.154 37.73 0 26.916 31.626 48 72 48s72-21.084 72-48c0-20.656-18.834-38.4-47.358-45.166l-36.251-117.771a63.947 63.947 0 0 0 -44.391-100.193v-5.782a19.066 19.066 0 0 0 -32.548-13.482l-8.825 8.826a103.881 103.881 0 0 0 -30.627 73.941 64.1 64.1 0 0 0 42.817 60.381l13.748 34.6 14.87-5.908-9.989-25.14c.848.033 1.7.065 2.554.065a63.672 63.672 0 0 0 39.774-13.916l54.285 176.362a86.892 86.892 0 0 1 -29.983 5.183l-48.854-122.954-14.869 5.908 8.335 20.978-11.826.034h-.062a20.88 20.88 0 0 1 -14.407-5.737 18.691 18.691 0 0 1 -5.825-13.519 57.523 57.523 0 0 0 -17.606-41.11l-3.192-3.083a71.994 71.994 0 0 0 -39.951-19.291 178.588 178.588 0 0 0 -96.606 13.343c-67.133 29.664-107.213 79.544-107.213 133.431 0 54.4 40.678 104.544 108.813 134.13zm187.187-134.13c0-8.372 6.4-16.687 17.109-22.739l21.058 53c-21.925-4.371-38.167-16.461-38.167-30.261zm-8-151.627a48.054 48.054 0 0 1 -48-48 87.99 87.99 0 0 1 25.941-62.628l8.826-8.825a2.889 2.889 0 0 1 2.093-.92 3.3 3.3 0 0 1 1.247.258 2.923 2.923 0 0 1 1.893 2.83v13.285a8 8 0 0 0 8 8 48 48 0 0 1 0 96zm94.307 124.868c15.615 5.876 25.693 15.969 25.693 26.759 0 7.129-4.339 13.8-11.55 19.191z"/><path d="m429.51 239.6c-.138 0-.28 0-.419 0l-13.332.4.482 16 13.219-.4h.05c27.7 0 50.333 21.436 50.488 47.843v.56c0 56.013-50.01 104.654-122.83 128.453l-4.582-9.166a27.705 27.705 0 0 0 -5.2-7.209l-7.953-7.953a11.666 11.666 0 0 1 -3.439-8.3v-4.082a27.777 27.777 0 0 0 -52.611-12.406l-2.887 5.774a11.806 11.806 0 0 1 -14.209 5.886 27.56 27.56 0 0 0 -21.179 1.5l-4 2a27.792 27.792 0 0 0 -10.675 9.425l-4.915 7.373a27.922 27.922 0 0 0 .418 31.38 314.826 314.826 0 0 1 -79.217-17.054l-5.444 15.045c34.953 12.646 74.625 19.331 114.725 19.331 48.782 0 95.376-9.612 134.809-27.458l1.719 4.328c.039.1.081.2.124.3a26.681 26.681 0 0 0 15.5 14.4 26.912 26.912 0 0 0 34.819-33.21l-4.4-14.29c37.168-28.892 57.429-65.346 57.429-104.07v-.646c-.21-35.196-30.017-63.754-66.49-63.754zm-181.856 208.289-8.072-9.686a11.814 11.814 0 0 1 -.749-14.031l4.914-7.372a11.768 11.768 0 0 1 4.521-3.989l4-2a11.668 11.668 0 0 1 8.963-.637 27.878 27.878 0 0 0 33.584-13.911l2.887-5.774a11.777 11.777 0 0 1 22.3 5.251v4.082a27.563 27.563 0 0 0 8.125 19.616l7.953 7.954a11.682 11.682 0 0 1 2.2 3.05l3.311 6.623a333.019 333.019 0 0 1 -85.591 10.935c-2.785 0-5.567-.044-8.346-.111zm180.024-20.841a10.911 10.911 0 0 1 -20.348 7.746l-2.11-5.312q9.982-5.283 19.213-11.31c.143-.094.281-.191.424-.286z"/><path d="m56 268c0 15.7 18.155 28 41.333 28s41.334-12.3 41.334-28-18.156-28-41.334-28-41.333 12.3-41.333 28zm66.667 0c0 4.893-9.869 12-25.334 12s-25.333-7.107-25.333-12 9.869-12 25.333-12 25.334 7.107 25.334 12z"/><path d="m105.333 368c23.178 0 41.334-12.3 41.334-28s-18.156-28-41.334-28-41.333 12.3-41.333 28 18.155 28 41.333 28zm0-40c15.465 0 25.334 7.107 25.334 12s-9.869 12-25.334 12-25.333-7.107-25.333-12 9.869-12 25.333-12z"/><path d="m177.333 416c23.178 0 41.334-12.3 41.334-28s-18.156-28-41.334-28-41.333 12.3-41.333 28 18.155 28 41.333 28zm0-40c15.465 0 25.334 7.107 25.334 12s-9.869 12-25.334 12-25.333-7.107-25.333-12 9.869-12 25.333-12z"/><path d="m166.667 248c23.178 0 41.333-12.3 41.333-28s-18.155-28-41.333-28-41.334 12.3-41.334 28 18.156 28 41.334 28zm0-40c15.464 0 25.333 7.107 25.333 12s-9.869 12-25.333 12-25.334-7.107-25.334-12 9.867-12 25.334-12z"/><path d="m266.363 311.535 1.882-7.535a23.761 23.761 0 0 0 -15.466-28.175l-2.1-.7a7.617 7.617 0 0 1 -5-5.4 23.652 23.652 0 0 0 -37.721-12.733l-18.777 15.018a7.614 7.614 0 0 1 -2.359 1.283l-13.922 4.643a23.76 23.76 0 0 0 -14.959 14.96l-1.233 3.7a23.771 23.771 0 0 0 11.861 28.635 81.167 81.167 0 0 0 46.458 7.957l31.328-3.916a23.8 23.8 0 0 0 20.008-17.737zm-53.325 5.773a65.115 65.115 0 0 1 -37.317-6.392 7.692 7.692 0 0 1 -3.839-9.265l1.232-3.7a7.689 7.689 0 0 1 4.839-4.84l13.928-4.642a23.576 23.576 0 0 0 7.295-3.969l18.774-15.018a7.529 7.529 0 0 1 4.735-1.692 7.779 7.779 0 0 1 2.492.417 7.524 7.524 0 0 1 4.977 5.394 23.541 23.541 0 0 0 15.466 16.7l2.1.7a7.688 7.688 0 0 1 5 9.116l-1.882 7.532a7.7 7.7 0 0 1 -6.476 5.738z"/></svg>